# xmcd CD database file
#
# Track frame offsets:
#	150
#	25907
#	45802
#	69015
#	99972
#	124750
#	148270
#	174227
#	200617
#	223527
#	245477
#
# Disc length: 3331 seconds
#
# Revision: 0
# Processed by: cddbd v1.5.2PL0 Copyright (c) Steve Scherf et al.
# Submitted via: CDex 1.70beta2
#
DISCID=8f0d010b
DTITLE=Various Artist - Word of Mouth--DoubleVision Edition [CD1]
DYEAR=1994
DGENRE=Jazz
TTITLE0=Viva De Funk -- Joe Sample and The Soul Committee
TTITLE1=Backbone -- Boney James
TTITLE2=Tiptoein' -- Earl Klugh
TTITLE3=Voices -- Hiroshima
TTITLE4=Last Kiss -- Andy Snitzer
TTITLE5=Mas Que Nada -- Al Jarreau
TTITLE6=Rentstrike -- Groove Collection
TTITLE7=Clube Da Esquina No. 2 -- Milton Nascimento
TTITLE8=G-Spot -- Jon Hassell and Bluescreen
TTITLE9=Restless (Harlem River Drive Remix) -- Bob James
TTITLE10=4 Miles (Interlude) -- Take 6
EXTD=YEAR: 1994
EXTT0=
EXTT1=
EXTT2=
EXTT3=
EXTT4=
EXTT5=
EXTT6=
EXTT7=
EXTT8=
EXTT9=
EXTT10=
PLAYORDER=
